<?xml version="1.0" encoding="utf-8"?>
<!-- Generator: Adobe Illustrator 27.9.0, SVG Export Plug-In . SVG Version: 6.00 Build 0)  -->
<svg version="1.1" id="Layer_1" xmlns="http://www.w3.org/2000/svg" xmlns:xlink="http://www.w3.org/1999/xlink" x="0px" y="0px"
	 viewBox="0 0 1295 847.7" style="enable-background:new 0 0 1295 847.7;" xml:space="preserve">
<style type="text/css">
	.st0{enable-background:new    ;}
	.st1{fill:#005460;}
	.st2{fill:#005D6B;}
	.st3{fill:#808080;}
	.st4{fill:#8F8F8F;}
	.st5{fill:#E9E9E9;}
	.st6{fill:#0098AE;}
	.st7{fill:#8AE3FF;}
	.st8{fill:#00554F;}
	.st9{fill:#005F58;}
	.st10{opacity:0.9;}
	.st11{fill:#F1FF8D;stroke:#F1FFA1;stroke-width:3;stroke-miterlimit:10;}
	.st12{fill:#8AE3FF;stroke:#000000;stroke-miterlimit:10;}
	.st13{fill:none;stroke:#005F58;stroke-width:3;stroke-miterlimit:10;}
	.st14{fill:#FFFFFF;stroke:#FFFFFF;stroke-width:2;stroke-miterlimit:10;}
	.st15{fill:#FFFFFF;stroke:#000000;stroke-width:2;stroke-miterlimit:10;}
	.st16{font-family:'ArialMT';}
	.st17{font-size:45.7156px;}
	.st18{font-size:45px;}
	.st19{font-family:'TimesNewRomanPS-BoldMT';}
	.st20{font-size:32px;}
	.st21{letter-spacing:25.9;}
	.st22{font-size:19.7019px;}
	.st23{font-size:47.7148px;}
	.st24{fill:none;stroke:#23005F;stroke-width:0.75;stroke-miterlimit:10;}
	.st25{fill:#FFFFFF;}
	.st26{font-size:10.7074px;}
	.st27{fill:#009FB4;}
	.st28{fill:#D1D3D4;}
	.st29{fill:#1A2D58;}
	.st30{fill:#808285;}
	.st31{fill:#CBCDCF;}
	.st32{fill:#081835;}
	.st33{fill:#E3C6A7;}
</style>
<g>
	<g>
		<g>
			
				<image style="overflow:visible;enable-background:new    ;" width="1067" height="118" xlink:href="B5BEEBF3.png"  transform="matrix(0.999 0 0 0.999 185.5744 680.2949)">
			</image>
		</g>
	</g>
</g>
<g>
	<g>
		
			<image style="overflow:visible;enable-background:new    ;" width="646" height="271" xlink:href="B5BEEBF1.png"  transform="matrix(0.9981 0 0 0.9981 595.6044 503.8862)">
		</image>
	</g>
</g>
<g>
	<g>
		
			<image style="overflow:visible;enable-background:new    ;" width="88" height="511" xlink:href="B5BEEBFE.png"  transform="matrix(0.4891 0 0 0.4891 222.0019 540.2811)">
		</image>
	</g>
</g>
<g>
	<g>
		
			<image style="overflow:visible;enable-background:new    ;" width="86" height="512" xlink:href="B5BEEBFF.png"  transform="matrix(0.4885 0 0 0.4885 267.6013 488.3259)">
		</image>
	</g>
</g>
<g>
	<g>
		
			<image style="overflow:visible;enable-background:new    ;" width="88" height="512" xlink:href="B5BEEBF2.png"  transform="matrix(0.4881 0 0 0.4881 514.9359 488.4066)">
		</image>
	</g>
</g>
<g>
	<g>
		
			<image style="overflow:visible;enable-background:new    ;" width="88" height="512" xlink:href="B5BEEBF5.png"  transform="matrix(0.4881 0 0 0.4881 469.8518 541.2742)">
		</image>
	</g>
</g>
<g>
	<g>
		<g class="st0">
			<g>
				<polygon class="st1" points="588,508 588,523.5 245.6,522.3 245.6,506.9 				"/>
			</g>
			<g>
				<polygon class="st2" points="245.6,506.9 245.6,522.3 188.4,589.7 188.4,574.2 				"/>
			</g>
			<g>
				<polygon class="st3" points="530.7,575.4 530.7,590.8 188.4,589.7 188.4,574.2 				"/>
			</g>
			<g>
				<polygon class="st4" points="588,508 588,523.5 530.7,590.8 530.7,575.4 				"/>
			</g>
			<g>
				<polygon class="st5" points="245.6,506.9 588,508 530.7,575.4 188.4,574.2 				"/>
			</g>
			<g>
				<polygon class="st1" points="531.2,576.3 531.2,591.8 186.3,590.6 186.3,575.1 				"/>
			</g>
			<g>
				<polygon class="st2" points="590.1,507.1 590.1,522.5 531.2,591.8 531.2,576.3 				"/>
			</g>
			<g>
				<path class="st6" d="M245.1,505.9l344.9,1.2l-58.9,69.2l-344.9-1.2L245.1,505.9z M530.7,575.4l57.2-67.3l-342.4-1.2l-57.2,67.3
					L530.7,575.4"/>
			</g>
		</g>
	</g>
</g>
<polygon id="Water_Tank_Base" class="st7" points="530.5,576.7 188.2,574.9 245.8,507.2 588.1,508.9 "/>
<g>
	<g>
		<g class="st0">
			<g>
				<polygon class="st8" points="245,321.1 590,322.3 590,507.7 245,506.5 				"/>
			</g>
			<g>
				<polygon class="st8" points="587.9,323.2 587.9,508.6 245.5,507.5 245.5,322 				"/>
			</g>
			<g>
				<polygon class="st3" points="245.5,322 587.9,323.2 587.9,508.6 245.5,507.5 				"/>
			</g>
			<g>
				<polygon class="st9" points="186.2,390.3 245,321.1 245,506.5 186.2,575.7 				"/>
			</g>
			<g>
				<polygon class="st9" points="245.5,322 245.5,507.5 188.3,574.8 188.3,389.4 				"/>
			</g>
			<g>
				<polygon class="st4" points="188.3,389.4 245.5,322 245.5,507.5 188.3,574.8 				"/>
			</g>
			<g>
				<polygon class="st9" points="530.6,390.6 587.9,323.2 587.9,508.6 530.6,576 				"/>
			</g>
			<g>
				<polygon class="st4" points="587.9,323.2 587.9,508.6 530.6,576 530.6,390.6 				"/>
			</g>
		</g>
	</g>
</g>
<g>
	<g>
		
			<image style="overflow:visible;enable-background:new    ;" width="509" height="153" xlink:href="C70F2020.png"  transform="matrix(0.1965 0 0 0.1965 591.0237 495.538)">
		</image>
	</g>
</g>
<g class="st10">
	<g>
		
			<image style="overflow:visible;enable-background:new    ;" width="512" height="128" xlink:href="C70F202F.png"  transform="matrix(0.6774 0 0 0.6774 893.2593 503.8959)">
		</image>
	</g>
</g>
<g>
	<g>
		
			<image style="overflow:visible;enable-background:new    ;" width="54" height="511" xlink:href="C52FA6DB.png"  transform="matrix(0.5752 0 0 0.3689 997.9247 217.2723)">
		</image>
	</g>
</g>
<g>
	<g>
		
			<image style="overflow:visible;enable-background:new    ;" width="513" height="43" xlink:href="C52FA6DD.png"  transform="matrix(1.4318 0 0 0.6978 278.412 202.8737)">
		</image>
	</g>
</g>
<g>
	<g>
		
			<image style="overflow:visible;enable-background:new    ;" width="209" height="510" xlink:href="C52FA74A.png"  transform="matrix(0.1416 0 0 0.1078 998.6578 521.5599)">
		</image>
	</g>
</g>
<g>
	<g>
		
			<image style="overflow:visible;enable-background:new    ;" width="212" height="510" xlink:href="C52FA74F.png"  transform="matrix(0.1413 0 0 0.1413 676.5494 510.5391)">
		</image>
	</g>
</g>
<rect id="Water_1" x="1004" y="519.8" class="st7" width="19.6" height="51.7"/>
<rect id="Water_9" x="681.6" y="521.8" class="st7" width="19.6" height="56.8"/>
<rect id="Water_3" x="1004.7" y="228.2" class="st7" width="19.6" height="175.2"/>
<rect id="Water_4" x="936" y="208.2" class="st7" width="77.5" height="19.6"/>
<rect id="Water_8" x="594.6" y="501" class="st7" width="87.2" height="19.6"/>
<circle id="Tank_Empty_Corner" class="st11" cx="687.8" cy="514.5" r="17.4"/>
<rect id="Water_6" x="301" y="208.6" class="st7" width="617" height="19.6"/>
<circle id="Corner_Top_Right" class="st11" cx="1013.5" cy="221.9" r="17.4"/>
<ellipse id="Suction_Pipe_Opening" class="st7" cx="1013.8" cy="571.7" rx="9.8" ry="3"/>
<ellipse id="Tank_Empty_End" class="st7" cx="691.5" cy="578.5" rx="9.8" ry="3"/>
<polygon id="Tank_Water_Back" class="st7" points="245.1,398.1 587.9,399 587.9,508.1 245.1,508.1 "/>
<g>
	<polygon class="st1" points="590.1,322.1 590.1,507.5 531.2,576.7 531.2,391.3 	"/>
</g>
<g id="Tank_Empty_Control">
	<g>
		<g>
			
				<image style="overflow:visible;enable-background:new    ;" width="412" height="508" xlink:href="C52FA7C7.png"  transform="matrix(9.887402e-02 0 0 9.887402e-02 557.2469 485.3879)">
			</image>
		</g>
	</g>
	<g>
		<g>
			
				<image style="overflow:visible;enable-background:new    ;" width="168" height="503" xlink:href="C52FA7CF.png"  transform="matrix(3.819093e-02 0 0 3.819093e-02 574.4069 471.5281)">
			</image>
		</g>
	</g>
	<g>
		<g>
			
				<image style="overflow:visible;enable-background:new    ;" width="503" height="188" xlink:href="C52FA7C1.png"  transform="matrix(8.546718e-02 0 0 8.546718e-02 556.1201 465.6205)">
			</image>
		</g>
	</g>
</g>
<g id="Tank_Empty_Control_00000000920067168395717810000001351023711700812424_">
	<g>
		<g>
			
				<image style="overflow:visible;enable-background:new    ;" width="412" height="508" xlink:href="C52FA7C7.png"  transform="matrix(9.887402e-02 0 0 9.887402e-02 909.639 193.3863)">
			</image>
		</g>
	</g>
	<g>
		<g>
			
				<image style="overflow:visible;enable-background:new    ;" width="168" height="503" xlink:href="C52FA7CF.png"  transform="matrix(3.819093e-02 0 0 3.819093e-02 926.799 179.5265)">
			</image>
		</g>
	</g>
	<g>
		<g>
			
				<image style="overflow:visible;enable-background:new    ;" width="503" height="188" xlink:href="C52FA7C1.png"  transform="matrix(8.546718e-02 0 0 8.546718e-02 908.5121 173.6189)">
			</image>
		</g>
	</g>
</g>
<polygon id="Tank_Water_Left" class="st7" points="245.2,506.9 187.2,577.5 187.2,467.5 244.8,396.9 "/>
<g>
	<g>
		
			<image style="overflow:visible;enable-background:new    ;" width="99" height="512" xlink:href="C70F2021.png"  transform="matrix(0.3085 0 0 0.3085 267.6958 219.7682)">
		</image>
	</g>
</g>
<rect id="Water_7" x="273.2" y="230.4" class="st7" width="19.6" height="297.1"/>
<rect id="Tank_Water_Front" x="187.2" y="467.5" class="st12" width="344.8" height="110"/>
<circle id="Corner_Top_Left" class="st11" cx="287" cy="221" r="17.4"/>
<line class="st13" x1="531.8" y1="392.3" x2="187.4" y2="391.3"/>
<g>
	<g>
		<g>
			
				<image style="overflow:visible;enable-background:new    ;" width="513" height="238" xlink:href="C52FA7C2.png"  transform="matrix(0.4361 0 0 0.4361 22.5491 211.7993)">
			</image>
		</g>
	</g>
	<path class="st14" d="M208.4,301.4H55c-10.2,0-18.4-8.2-18.4-18.4v-29.5c0-10.2,8.2-18.4,18.4-18.4h153.4
		c10.2,0,18.4,8.2,18.4,18.4V283C226.8,293.2,218.6,301.4,208.4,301.4z"/>
</g>
<g>
	<g>
		<g>
			
				<image style="overflow:visible;enable-background:new    ;" width="513" height="284" xlink:href="C52FA7C3.png"  transform="matrix(0.2182 0 0 0.2764 1055.889 131.8037)">
			</image>
		</g>
	</g>
	<path class="st15" d="M1137,203.2h-55.4c-8.4,0-15.2-8.6-15.2-19.3v-18.4c0-10.6,6.8-19.3,15.2-19.3h55.4c8.4,0,15.2,8.6,15.2,19.3
		v18.4C1152.2,194.5,1145.4,203.2,1137,203.2z"/>
</g>
<text transform="matrix(0.945 0 0 1 44.3584 275.4863)" class="st16 st17">00</text>
<text transform="matrix(1.0432 0 0 1 1095.6201 190.4902)" class="st16 st18">0</text>
<text transform="matrix(1.0432 0 0 1 1036.8877 74.6123)" class="st19 st20 st21"> </text>
<text transform="matrix(1.0432 0 0 1 1074.4434 74.6123)" class="st19 st20">Valve </text>
<text transform="matrix(1.0432 0 0 1 1036.8877 113.0117)" class="st19 st20">Positioning</text>
<text transform="matrix(1.0432 0 0 1 644.5264 393.6003)" class="st19 st20 st21"> </text>
<text transform="matrix(1.0432 0 0 1 656.7872 422.6003)" class="st0"><tspan x="0" y="0" class="st19 st20">Gate</tspan><tspan x="-10.2" y="38.4" class="st19 st20">Valve </tspan></text>
<text transform="matrix(1.0397 0 0 1 89.9434 197.7368)" class="st19 st20">Timer</text>
<text transform="matrix(0.945 0 0 1 111.4229 275.1348)" class="st16 st17">00</text>
<text transform="matrix(0.945 0 0 1 175.8916 275.9883)" class="st16 st17">00</text>
<text transform="matrix(0.8527 0 0 1 53.3506 293.6123)" class="st16 st22">min</text>
<text transform="matrix(0.8527 0 0 1 121.7041 292.7588)" class="st16 st22">sec</text>
<text transform="matrix(0.8527 0 0 1 188.915 292.7588)" class="st16 st22">ms</text>
<text transform="matrix(0.945 0 0 1 96.8105 271.7178)" class="st16 st23">:</text>
<text transform="matrix(0.945 0 0 1 160.4326 271.3887)" class="st16 st23">:</text>
<path class="st24" d="M56.1,481.5"/>
<path class="st24" d="M55.8,492.4"/>
<path class="st24" d="M55.8,503.7"/>
<path class="st24" d="M55.8,515.4"/>
<g>
	<line class="st24" x1="125.4" y1="532.9" x2="195.7" y2="532.9"/>
	<line class="st24" x1="125.4" y1="543.5" x2="195.7" y2="543.5"/>
	<line class="st24" x1="125.4" y1="555.2" x2="195.7" y2="555.2"/>
	<line class="st24" x1="125.4" y1="566.9" x2="195.7" y2="566.9"/>
	<polyline class="st24" points="195.4,577.6 125.6,577.6 125.6,451.3 	"/>
	<path class="st24" d="M195.4,451.3"/>
	<line class="st24" x1="125.4" y1="467.5" x2="195.7" y2="467.5"/>
	<path class="st24" d="M196,466.6"/>
	<line class="st24" x1="125.4" y1="478.3" x2="195.7" y2="478.3"/>
	<path class="st24" d="M195.7,477.6"/>
	<line class="st24" x1="125.4" y1="489.3" x2="195.7" y2="489.3"/>
	<path class="st24" d="M195.7,488.8"/>
	<line class="st24" x1="125.4" y1="500.9" x2="195.7" y2="500.9"/>
	<path class="st24" d="M195.7,500.5"/>
	<line class="st24" x1="125.4" y1="511.6" x2="195.7" y2="511.6"/>
	<line class="st24" x1="125.4" y1="522.2" x2="195.7" y2="522.2"/>
	<rect x="122.9" y="447.5" class="st25" width="52.9" height="131.7"/>
	<text transform="matrix(1.2422 0 0 1 157.3359 571.1006)" class="st16 st26">1</text>
	<text transform="matrix(1.2422 0 0 1 157.4961 582.2939)" class="st16 st26">0</text>
	<text transform="matrix(1.2422 0 0 1 157.3359 559.2266)" class="st16 st26">2</text>
	<text transform="matrix(1.2422 0 0 1 157.3359 547.5635)" class="st16 st26">3</text>
	<text transform="matrix(1.2422 0 0 1 157.3359 536.084)" class="st16 st26">4</text>
	<text transform="matrix(1.2422 0 0 1 157.3359 525.9385)" class="st16 st26">5</text>
	<text transform="matrix(1.2422 0 0 1 157.3359 515.3242)" class="st16 st26">6</text>
	<text transform="matrix(1.2422 0 0 1 157.3359 505.1426)" class="st16 st26">7</text>
	<text transform="matrix(1.2422 0 0 1 157.3359 493.5322)" class="st16 st26">8</text>
	<text transform="matrix(1.2422 0 0 1 157.3359 482.374)" class="st16 st26">9</text>
	<text transform="matrix(1.2422 0 0 1 153.3359 471.2979)" class="st16 st26">10</text>
</g>
<g>
	<rect x="127.7" y="577.7" width="15.8" height="3.2"/>
	<polyline points="143.5,573.3 151.6,579.3 143.5,585.3 	"/>
</g>
<g>
	<rect x="608.9" y="455.6" transform="matrix(0.4766 -0.8791 0.8791 0.4766 -76.0818 790.0346)" width="33.1" height="6.7"/>
	<polyline points="628.6,479.5 609.5,488.4 606.5,467.5 	"/>
</g>
<g>
	<rect x="962.2" y="138.6" transform="matrix(0.4829 -0.8757 0.8757 0.4829 381.8674 930.501)" width="33.1" height="6.7"/>
	<polyline points="981.8,162.5 962.6,171.3 959.8,150.4 	"/>
</g>
<g>
	<rect x="1012.9" y="356.8" class="st27" width="3.2" height="15.8"/>
	<polyline class="st27" points="1008.5,356.8 1014.5,348.6 1020.5,356.8 	"/>
</g>
<g>
	<rect x="1012.9" y="273.8" class="st27" width="3.2" height="15.8"/>
	<polyline class="st27" points="1008.5,273.8 1014.5,265.6 1020.5,273.8 	"/>
</g>
<g>
	<rect x="557" y="216.5" class="st27" width="15.8" height="3.2"/>
	<polyline class="st27" points="557.1,224.1 548.9,218.1 557.1,212 	"/>
</g>
<g>
	<rect x="655.4" y="216.5" class="st27" width="15.8" height="3.2"/>
	<polyline class="st27" points="655.5,224.1 647.3,218.1 655.5,212 	"/>
</g>
<g>
	<rect x="765.1" y="216.5" class="st27" width="15.8" height="3.2"/>
	<polyline class="st27" points="765.2,224.1 757,218.1 765.2,212 	"/>
</g>
<g>
	<rect x="866.4" y="216.1" class="st27" width="15.8" height="3.2"/>
	<polyline class="st27" points="866.4,223.7 858.2,217.7 866.4,211.7 	"/>
</g>
<g>
	<rect x="468" y="216.5" class="st27" width="15.8" height="3.2"/>
	<polyline class="st27" points="468.1,224.1 459.9,218.1 468.1,212 	"/>
</g>
<g>
	<rect x="379" y="216.5" class="st27" width="15.8" height="3.2"/>
	<polyline class="st27" points="379.1,224.1 370.9,218.1 379.1,212 	"/>
</g>
<g>
	<rect x="281.5" y="270.8" class="st27" width="3.2" height="15.8"/>
	<polyline class="st27" points="289,286.5 283,294.7 277,286.5 	"/>
</g>
<g id="Motor">
	<rect x="1004.4" y="421.7" class="st28" width="19.2" height="76.3"/>
	<polygon class="st29" points="998.4,484 991.1,480.1 991.1,440.3 998.4,436.4 	"/>
	<path class="st30" d="M1023.6,498L1023.6,498v-76.3l0,0c3.6,0,6.4,2.9,6.4,6.4v63.5C1030.1,495.1,1027.2,498,1023.6,498z"/>
	<path class="st30" d="M1004.4,498L1004.4,498c-3.6,0-6.4-2.9-6.4-6.4v-63.5c0-3.6,2.9-6.4,6.4-6.4l0,0V498z"/>
	<rect x="1006.3" y="409.5" class="st31" width="15.3" height="12.3"/>
	<rect x="1006.3" y="497.9" class="st31" width="15.3" height="12.3"/>
	<rect x="997.1" y="395.8" class="st32" width="32.9" height="17"/>
	<rect x="1030.1" y="435.9" class="st32" width="17" height="47.8"/>
	<rect x="997.1" y="508.3" class="st32" width="32.9" height="17"/>
	<path class="st33" d="M1076.9,503.6h87c5.2,0,9.5-4.3,9.5-9.5v-69.4c0-5.2-4.3-9.5-9.5-9.5h-87c-17.9,0-32.5,14.5-32.5,32.5v23.4
		C1044.4,489,1058.9,503.6,1076.9,503.6z"/>
	<rect x="1120.1" y="428.5" class="st32" width="29.1" height="7.4"/>
	<rect x="1061.1" y="532.1" class="st32" width="94.4" height="7.2"/>
	<path class="st29" d="M1155.4,532.1l-94.3-0.1c3.3-0.2,14.6-1.1,24.4-10.1c7.5-6.9,10.1-15,11.1-18.5c8,0,16,0,24,0
		c0.8,3.6,3,10.6,9,16.9C1139.5,530.9,1152.3,531.9,1155.4,532.1z"/>
	<rect x="1120.1" y="442.4" class="st32" width="29.1" height="7.4"/>
	<rect x="1120.1" y="456.5" class="st32" width="29.1" height="7.4"/>
	<rect x="1120.1" y="469.9" class="st32" width="29.1" height="7.4"/>
	<rect x="1120.1" y="483.3" class="st32" width="29.1" height="7.4"/>
</g>
</svg>
